<svg xmlns="http://www.w3.org/2000/svg" data-name="Layer 1" viewBox="0 0 48 60" x="0px" y="0px"><title>Basic, UI,</title><path d="M24,4A20,20,0,1,0,44,24,20.023,20.023,0,0,0,24,4Zm0,38A18,18,0,1,1,42,24,18.021,18.021,0,0,1,24,42Z"/><path d="M29.774,21.106l1.808-1.293A1,1,0,0,0,32,19V12a1,1,0,0,0-1-1H17a1,1,0,0,0-1,1v7a1,1,0,0,0,.418.813l1.808,1.293a9,9,0,1,0,11.548,0ZM24,19a8.971,8.971,0,0,0-2,.232V13h4v6.232A8.971,8.971,0,0,0,24,19Zm6-.514-2,1.43V13h2ZM18,13h2v6.916l-2-1.43Zm6,22a7,7,0,1,1,7-7A7.008,7.008,0,0,1,24,35Z"/><path d="M24,23a5,5,0,1,0,5,5A5.006,5.006,0,0,0,24,23Zm0,8a3,3,0,1,1,3-3A3,3,0,0,1,24,31Z"/><text x="0" y="63" fill="#000000" font-size="5px" font-weight="bold" font-family="'Helvetica Neue', Helvetica, Arial-Unicode, Arial, Sans-serif">Created by Anggara Putra</text><text x="0" y="68" fill="#000000" font-size="5px" font-weight="bold" font-family="'Helvetica Neue', Helvetica, Arial-Unicode, Arial, Sans-serif">from the Noun Project</text></svg>